<mxfile host="app.diagrams.net" modified="2023-02-02T02:00:21.759Z" agent="5.0 (Windows NT 10.0; Win64; x64) AppleWebKit/537.36 (KHTML, like Gecko) Chrome/109.0.0.0 Safari/537.36" etag="-fL0g4PgfgsID_hRiz2D" version="20.8.15" type="github" pages="5">
  <diagram id="1ORhHdgpa0zXQtTh80_n" name="Login">
    <mxGraphModel dx="910" dy="512" grid="1" gridSize="10" guides="1" tooltips="1" connect="1" arrows="1" fold="1" page="1" pageScale="1" pageWidth="827" pageHeight="1169" math="0" shadow="0">
      <root>
        <mxCell id="0" />
        <mxCell id="1" parent="0" />
        <mxCell id="rUffZERJRP5WiuUjIUWa-1" value="" style="rounded=0;html=1;jettySize=auto;orthogonalLoop=1;fontSize=11;endArrow=block;endFill=0;endSize=8;strokeWidth=1;shadow=0;labelBackgroundColor=none;edgeStyle=orthogonalEdgeStyle;" edge="1" parent="1" source="rUffZERJRP5WiuUjIUWa-2" target="rUffZERJRP5WiuUjIUWa-5">
          <mxGeometry relative="1" as="geometry" />
        </mxCell>
        <mxCell id="rUffZERJRP5WiuUjIUWa-2" value="Mulai" style="rounded=1;whiteSpace=wrap;html=1;fontSize=12;glass=0;strokeWidth=1;shadow=0;arcSize=50;" vertex="1" parent="1">
          <mxGeometry x="160" y="80" width="120" height="40" as="geometry" />
        </mxCell>
        <mxCell id="rUffZERJRP5WiuUjIUWa-3" value="Yes" style="rounded=0;html=1;jettySize=auto;orthogonalLoop=1;fontSize=11;endArrow=block;endFill=0;endSize=8;strokeWidth=1;shadow=0;labelBackgroundColor=none;edgeStyle=orthogonalEdgeStyle;" edge="1" parent="1" source="rUffZERJRP5WiuUjIUWa-5">
          <mxGeometry y="20" relative="1" as="geometry">
            <mxPoint as="offset" />
            <mxPoint x="220" y="290" as="targetPoint" />
          </mxGeometry>
        </mxCell>
        <mxCell id="rUffZERJRP5WiuUjIUWa-4" value="No" style="edgeStyle=orthogonalEdgeStyle;rounded=0;html=1;jettySize=auto;orthogonalLoop=1;fontSize=11;endArrow=block;endFill=0;endSize=8;strokeWidth=1;shadow=0;labelBackgroundColor=none;" edge="1" parent="1" source="rUffZERJRP5WiuUjIUWa-5" target="rUffZERJRP5WiuUjIUWa-6">
          <mxGeometry y="10" relative="1" as="geometry">
            <mxPoint as="offset" />
          </mxGeometry>
        </mxCell>
        <mxCell id="rUffZERJRP5WiuUjIUWa-5" value="Memiliki akun" style="rhombus;whiteSpace=wrap;html=1;shadow=0;fontFamily=Helvetica;fontSize=12;align=center;strokeWidth=1;spacing=6;spacingTop=-4;" vertex="1" parent="1">
          <mxGeometry x="170" y="170" width="100" height="80" as="geometry" />
        </mxCell>
        <mxCell id="rUffZERJRP5WiuUjIUWa-6" value="Buat akun / daftar" style="rounded=1;whiteSpace=wrap;html=1;fontSize=12;glass=0;strokeWidth=1;shadow=0;" vertex="1" parent="1">
          <mxGeometry x="320" y="190" width="120" height="40" as="geometry" />
        </mxCell>
        <mxCell id="rUffZERJRP5WiuUjIUWa-7" value="Login" style="whiteSpace=wrap;html=1;aspect=fixed;" vertex="1" parent="1">
          <mxGeometry x="180" y="290" width="80" height="80" as="geometry" />
        </mxCell>
        <mxCell id="rUffZERJRP5WiuUjIUWa-8" value="" style="rounded=0;html=1;jettySize=auto;orthogonalLoop=1;fontSize=11;endArrow=block;endFill=0;endSize=8;strokeWidth=1;shadow=0;labelBackgroundColor=none;edgeStyle=orthogonalEdgeStyle;" edge="1" parent="1">
          <mxGeometry relative="1" as="geometry">
            <mxPoint x="219.5" y="370" as="sourcePoint" />
            <mxPoint x="219.5" y="420" as="targetPoint" />
          </mxGeometry>
        </mxCell>
        <mxCell id="rUffZERJRP5WiuUjIUWa-9" value="Masukkan username dan password" style="shape=parallelogram;perimeter=parallelogramPerimeter;whiteSpace=wrap;html=1;fixedSize=1;" vertex="1" parent="1">
          <mxGeometry x="140" y="420" width="160" height="80" as="geometry" />
        </mxCell>
        <mxCell id="rUffZERJRP5WiuUjIUWa-10" value="" style="rounded=0;html=1;jettySize=auto;orthogonalLoop=1;fontSize=11;endArrow=block;endFill=0;endSize=8;strokeWidth=1;shadow=0;labelBackgroundColor=none;edgeStyle=orthogonalEdgeStyle;" edge="1" parent="1">
          <mxGeometry relative="1" as="geometry">
            <mxPoint x="219.5" y="500" as="sourcePoint" />
            <mxPoint x="219.5" y="550" as="targetPoint" />
          </mxGeometry>
        </mxCell>
        <mxCell id="rUffZERJRP5WiuUjIUWa-11" value="Apakah username dan password benar?" style="rhombus;whiteSpace=wrap;html=1;fontSize=10;" vertex="1" parent="1">
          <mxGeometry x="180" y="550" width="80" height="80" as="geometry" />
        </mxCell>
        <mxCell id="rUffZERJRP5WiuUjIUWa-12" value="No" style="edgeStyle=orthogonalEdgeStyle;rounded=0;html=1;jettySize=auto;orthogonalLoop=1;fontSize=11;endArrow=block;endFill=0;endSize=8;strokeWidth=1;shadow=0;labelBackgroundColor=none;entryX=1;entryY=0.5;entryDx=0;entryDy=0;" edge="1" parent="1" target="rUffZERJRP5WiuUjIUWa-9">
          <mxGeometry y="10" relative="1" as="geometry">
            <mxPoint as="offset" />
            <mxPoint x="260" y="589.5" as="sourcePoint" />
            <mxPoint x="320" y="470" as="targetPoint" />
            <Array as="points">
              <mxPoint x="290" y="590" />
            </Array>
          </mxGeometry>
        </mxCell>
        <mxCell id="rUffZERJRP5WiuUjIUWa-13" value="" style="rounded=0;html=1;jettySize=auto;orthogonalLoop=1;fontSize=11;endArrow=block;endFill=0;endSize=8;strokeWidth=1;shadow=0;labelBackgroundColor=none;edgeStyle=orthogonalEdgeStyle;exitX=0.5;exitY=1;exitDx=0;exitDy=0;" edge="1" parent="1" source="rUffZERJRP5WiuUjIUWa-11">
          <mxGeometry relative="1" as="geometry">
            <mxPoint x="219.5" y="740" as="sourcePoint" />
            <mxPoint x="219.5" y="790" as="targetPoint" />
          </mxGeometry>
        </mxCell>
        <mxCell id="rUffZERJRP5WiuUjIUWa-14" value="Administrator" style="rhombus;whiteSpace=wrap;html=1;fontSize=10;" vertex="1" parent="1">
          <mxGeometry x="180" y="700" width="80" height="80" as="geometry" />
        </mxCell>
        <mxCell id="rUffZERJRP5WiuUjIUWa-15" value="Yes" style="rounded=0;html=1;jettySize=auto;orthogonalLoop=1;fontSize=11;endArrow=block;endFill=0;endSize=8;strokeWidth=1;shadow=0;labelBackgroundColor=none;edgeStyle=orthogonalEdgeStyle;exitX=1;exitY=0.5;exitDx=0;exitDy=0;" edge="1" parent="1" source="rUffZERJRP5WiuUjIUWa-14">
          <mxGeometry y="20" relative="1" as="geometry">
            <mxPoint as="offset" />
            <mxPoint x="290" y="740" as="sourcePoint" />
            <mxPoint x="310" y="740" as="targetPoint" />
          </mxGeometry>
        </mxCell>
        <mxCell id="rUffZERJRP5WiuUjIUWa-16" value="Masuk ke halaman Admin" style="rounded=0;whiteSpace=wrap;html=1;fontSize=10;" vertex="1" parent="1">
          <mxGeometry x="310" y="710" width="120" height="60" as="geometry" />
        </mxCell>
        <mxCell id="rUffZERJRP5WiuUjIUWa-17" value="No" style="edgeStyle=orthogonalEdgeStyle;rounded=0;html=1;jettySize=auto;orthogonalLoop=1;fontSize=11;endArrow=block;endFill=0;endSize=8;strokeWidth=1;shadow=0;labelBackgroundColor=none;" edge="1" parent="1">
          <mxGeometry y="10" relative="1" as="geometry">
            <mxPoint as="offset" />
            <mxPoint x="220" y="780" as="sourcePoint" />
            <mxPoint x="220" y="830" as="targetPoint" />
          </mxGeometry>
        </mxCell>
        <mxCell id="rUffZERJRP5WiuUjIUWa-18" value="Masuk ke halaman Beranda" style="rounded=0;whiteSpace=wrap;html=1;fontSize=10;" vertex="1" parent="1">
          <mxGeometry x="310" y="840" width="120" height="60" as="geometry" />
        </mxCell>
        <mxCell id="rUffZERJRP5WiuUjIUWa-19" value="" style="rounded=0;html=1;jettySize=auto;orthogonalLoop=1;fontSize=11;endArrow=block;endFill=0;endSize=8;strokeWidth=1;shadow=0;labelBackgroundColor=none;edgeStyle=orthogonalEdgeStyle;" edge="1" parent="1">
          <mxGeometry relative="1" as="geometry">
            <mxPoint x="430" y="737" as="sourcePoint" />
            <mxPoint x="520" y="990" as="targetPoint" />
            <Array as="points">
              <mxPoint x="520" y="737" />
              <mxPoint x="520" y="757" />
            </Array>
          </mxGeometry>
        </mxCell>
        <mxCell id="rUffZERJRP5WiuUjIUWa-20" value="Selesai" style="rounded=1;whiteSpace=wrap;html=1;fontSize=12;glass=0;strokeWidth=1;shadow=0;arcSize=50;" vertex="1" parent="1">
          <mxGeometry x="460" y="990" width="120" height="40" as="geometry" />
        </mxCell>
        <mxCell id="rUffZERJRP5WiuUjIUWa-21" value="" style="rounded=0;html=1;jettySize=auto;orthogonalLoop=1;fontSize=11;endArrow=block;endFill=0;endSize=8;strokeWidth=1;shadow=0;labelBackgroundColor=none;edgeStyle=orthogonalEdgeStyle;exitX=1;exitY=0.5;exitDx=0;exitDy=0;exitPerimeter=0;" edge="1" parent="1">
          <mxGeometry relative="1" as="geometry">
            <mxPoint x="430" y="869.47" as="sourcePoint" />
            <mxPoint x="520" y="869.47" as="targetPoint" />
          </mxGeometry>
        </mxCell>
        <mxCell id="rUffZERJRP5WiuUjIUWa-22" value="Resepsionis" style="whiteSpace=wrap;html=1;aspect=fixed;fontSize=10;" vertex="1" parent="1">
          <mxGeometry x="180" y="830" width="80" height="80" as="geometry" />
        </mxCell>
        <mxCell id="rUffZERJRP5WiuUjIUWa-23" value="" style="rounded=0;html=1;jettySize=auto;orthogonalLoop=1;fontSize=11;endArrow=block;endFill=0;endSize=8;strokeWidth=1;shadow=0;labelBackgroundColor=none;edgeStyle=orthogonalEdgeStyle;exitX=1;exitY=0.5;exitDx=0;exitDy=0;exitPerimeter=0;entryX=0;entryY=0.5;entryDx=0;entryDy=0;" edge="1" parent="1" target="rUffZERJRP5WiuUjIUWa-18">
          <mxGeometry relative="1" as="geometry">
            <mxPoint x="260" y="869.47" as="sourcePoint" />
            <mxPoint x="300" y="869.47" as="targetPoint" />
          </mxGeometry>
        </mxCell>
        <mxCell id="rUffZERJRP5WiuUjIUWa-24" value="" style="rounded=0;html=1;jettySize=auto;orthogonalLoop=1;fontSize=11;endArrow=block;endFill=0;endSize=8;strokeWidth=1;shadow=0;labelBackgroundColor=none;edgeStyle=orthogonalEdgeStyle;entryX=1;entryY=0.5;entryDx=0;entryDy=0;" edge="1" parent="1" target="rUffZERJRP5WiuUjIUWa-7">
          <mxGeometry relative="1" as="geometry">
            <mxPoint x="359.73" y="230" as="sourcePoint" />
            <mxPoint x="380.26" y="350" as="targetPoint" />
            <Array as="points">
              <mxPoint x="380" y="230" />
              <mxPoint x="380" y="330" />
            </Array>
          </mxGeometry>
        </mxCell>
      </root>
    </mxGraphModel>
  </diagram>
  <diagram name="Tamu" id="Bq6MNSDMoIkj0V9BLX8q">
    <mxGraphModel dx="910" dy="512" grid="1" gridSize="10" guides="1" tooltips="1" connect="1" arrows="1" fold="1" page="1" pageScale="1" pageWidth="827" pageHeight="1169" math="0" shadow="0">
      <root>
        <mxCell id="0" />
        <mxCell id="1" parent="0" />
        <mxCell id="Vx19yqyidKN0kE8D680m-1" value="Tamu" style="shape=umlActor;verticalLabelPosition=bottom;verticalAlign=top;html=1;outlineConnect=0;" vertex="1" parent="1">
          <mxGeometry x="120" y="700" width="30" height="60" as="geometry" />
        </mxCell>
        <mxCell id="Vx19yqyidKN0kE8D680m-2" value="Melihat Tipe Kamar" style="ellipse;whiteSpace=wrap;html=1;" vertex="1" parent="1">
          <mxGeometry x="250" y="640" width="105" height="70" as="geometry" />
        </mxCell>
        <mxCell id="JCgODA3Cfvp38lYypTmR-1" value="Melihat Fasilitas" style="ellipse;whiteSpace=wrap;html=1;" vertex="1" parent="1">
          <mxGeometry x="250" y="730" width="105" height="70" as="geometry" />
        </mxCell>
        <mxCell id="JCgODA3Cfvp38lYypTmR-2" value="Memesan Kamar" style="ellipse;whiteSpace=wrap;html=1;" vertex="1" parent="1">
          <mxGeometry x="250" y="540" width="105" height="70" as="geometry" />
        </mxCell>
        <mxCell id="JCgODA3Cfvp38lYypTmR-3" value="Login" style="ellipse;whiteSpace=wrap;html=1;" vertex="1" parent="1">
          <mxGeometry x="250" y="840" width="105" height="70" as="geometry" />
        </mxCell>
        <mxCell id="JCgODA3Cfvp38lYypTmR-4" value="Register" style="ellipse;whiteSpace=wrap;html=1;" vertex="1" parent="1">
          <mxGeometry x="250" y="940" width="105" height="70" as="geometry" />
        </mxCell>
      </root>
    </mxGraphModel>
  </diagram>
  <diagram id="ButNFvOWuvwSy6D1y4C0" name="Pemesanan Kamar">
    <mxGraphModel dx="910" dy="512" grid="1" gridSize="10" guides="1" tooltips="1" connect="1" arrows="1" fold="1" page="1" pageScale="1" pageWidth="827" pageHeight="1169" math="0" shadow="0">
      <root>
        <mxCell id="0" />
        <mxCell id="1" parent="0" />
        <mxCell id="Bv9qbFzD1dSgbznQpZfb-1" value="" style="edgeStyle=orthogonalEdgeStyle;rounded=0;orthogonalLoop=1;jettySize=auto;html=1;" edge="1" parent="1" source="Bv9qbFzD1dSgbznQpZfb-2">
          <mxGeometry relative="1" as="geometry">
            <mxPoint x="250" y="290" as="targetPoint" />
          </mxGeometry>
        </mxCell>
        <mxCell id="Bv9qbFzD1dSgbznQpZfb-2" value="Mulai" style="rounded=1;whiteSpace=wrap;html=1;fontSize=12;glass=0;strokeWidth=1;shadow=0;arcSize=50;" vertex="1" parent="1">
          <mxGeometry x="190" y="200" width="120" height="40" as="geometry" />
        </mxCell>
        <mxCell id="Bv9qbFzD1dSgbznQpZfb-5" value="" style="edgeStyle=orthogonalEdgeStyle;rounded=0;orthogonalLoop=1;jettySize=auto;html=1;" edge="1" parent="1" target="Bv9qbFzD1dSgbznQpZfb-10">
          <mxGeometry relative="1" as="geometry">
            <mxPoint x="250" y="300" as="sourcePoint" />
          </mxGeometry>
        </mxCell>
        <mxCell id="Bv9qbFzD1dSgbznQpZfb-6" value="Masuk Ke halaman kamar" style="whiteSpace=wrap;html=1;rounded=0;" vertex="1" parent="1">
          <mxGeometry x="190" y="290" width="120" height="60" as="geometry" />
        </mxCell>
        <mxCell id="Bv9qbFzD1dSgbznQpZfb-7" value="" style="edgeStyle=orthogonalEdgeStyle;rounded=0;orthogonalLoop=1;jettySize=auto;html=1;" edge="1" parent="1" source="Bv9qbFzD1dSgbznQpZfb-8" target="Bv9qbFzD1dSgbznQpZfb-26">
          <mxGeometry relative="1" as="geometry" />
        </mxCell>
        <mxCell id="Bv9qbFzD1dSgbznQpZfb-8" value="Memasukkan Jumlah kamar, nama, dan email" style="shape=parallelogram;perimeter=parallelogramPerimeter;whiteSpace=wrap;html=1;fixedSize=1;" vertex="1" parent="1">
          <mxGeometry x="180" y="500" width="140" height="70" as="geometry" />
        </mxCell>
        <mxCell id="Bv9qbFzD1dSgbznQpZfb-9" value="" style="edgeStyle=orthogonalEdgeStyle;rounded=0;orthogonalLoop=1;jettySize=auto;html=1;" edge="1" parent="1" source="Bv9qbFzD1dSgbznQpZfb-10">
          <mxGeometry relative="1" as="geometry">
            <mxPoint x="250" y="495" as="targetPoint" />
          </mxGeometry>
        </mxCell>
        <mxCell id="Bv9qbFzD1dSgbznQpZfb-10" value="Memilih tipe Kamar" style="whiteSpace=wrap;html=1;rounded=0;" vertex="1" parent="1">
          <mxGeometry x="190" y="380" width="120" height="60" as="geometry" />
        </mxCell>
        <mxCell id="Bv9qbFzD1dSgbznQpZfb-11" value="" style="edgeStyle=orthogonalEdgeStyle;rounded=0;orthogonalLoop=1;jettySize=auto;html=1;" edge="1" parent="1" source="Bv9qbFzD1dSgbznQpZfb-12" target="Bv9qbFzD1dSgbznQpZfb-14">
          <mxGeometry relative="1" as="geometry" />
        </mxCell>
        <mxCell id="Bv9qbFzD1dSgbznQpZfb-12" value="Kamar terpesan" style="whiteSpace=wrap;html=1;" vertex="1" parent="1">
          <mxGeometry x="190" y="780" width="120" height="60" as="geometry" />
        </mxCell>
        <mxCell id="Bv9qbFzD1dSgbznQpZfb-13" value="" style="edgeStyle=orthogonalEdgeStyle;rounded=0;orthogonalLoop=1;jettySize=auto;html=1;" edge="1" parent="1" source="Bv9qbFzD1dSgbznQpZfb-14" target="Bv9qbFzD1dSgbznQpZfb-17">
          <mxGeometry relative="1" as="geometry" />
        </mxCell>
        <mxCell id="Bv9qbFzD1dSgbznQpZfb-14" value="Muncul detai pemesanan" style="whiteSpace=wrap;html=1;" vertex="1" parent="1">
          <mxGeometry x="190" y="920" width="120" height="60" as="geometry" />
        </mxCell>
        <mxCell id="Bv9qbFzD1dSgbznQpZfb-15" value="" style="edgeStyle=orthogonalEdgeStyle;rounded=0;orthogonalLoop=1;jettySize=auto;html=1;" edge="1" parent="1" source="Bv9qbFzD1dSgbznQpZfb-17" target="Bv9qbFzD1dSgbznQpZfb-19">
          <mxGeometry relative="1" as="geometry" />
        </mxCell>
        <mxCell id="Bv9qbFzD1dSgbznQpZfb-16" value="" style="edgeStyle=orthogonalEdgeStyle;rounded=0;orthogonalLoop=1;jettySize=auto;html=1;" edge="1" parent="1" source="Bv9qbFzD1dSgbznQpZfb-17" target="Bv9qbFzD1dSgbznQpZfb-23">
          <mxGeometry relative="1" as="geometry" />
        </mxCell>
        <mxCell id="Bv9qbFzD1dSgbznQpZfb-17" value="Mencetak/ menyimpan bukti pemesanan" style="rhombus;whiteSpace=wrap;html=1;" vertex="1" parent="1">
          <mxGeometry x="195" y="1005" width="110" height="110" as="geometry" />
        </mxCell>
        <mxCell id="Bv9qbFzD1dSgbznQpZfb-18" value="" style="edgeStyle=orthogonalEdgeStyle;rounded=0;orthogonalLoop=1;jettySize=auto;html=1;" edge="1" parent="1" source="Bv9qbFzD1dSgbznQpZfb-19" target="Bv9qbFzD1dSgbznQpZfb-21">
          <mxGeometry relative="1" as="geometry" />
        </mxCell>
        <mxCell id="Bv9qbFzD1dSgbznQpZfb-19" value="Cek pemesanan" style="whiteSpace=wrap;html=1;" vertex="1" parent="1">
          <mxGeometry x="380" y="1030" width="120" height="60" as="geometry" />
        </mxCell>
        <mxCell id="Bv9qbFzD1dSgbznQpZfb-20" value="" style="edgeStyle=orthogonalEdgeStyle;rounded=0;orthogonalLoop=1;jettySize=auto;html=1;" edge="1" parent="1" source="Bv9qbFzD1dSgbznQpZfb-21" target="Bv9qbFzD1dSgbznQpZfb-14">
          <mxGeometry relative="1" as="geometry" />
        </mxCell>
        <mxCell id="Bv9qbFzD1dSgbznQpZfb-21" value="Memasukkan nomor pemesanan" style="shape=parallelogram;perimeter=parallelogramPerimeter;whiteSpace=wrap;html=1;fixedSize=1;" vertex="1" parent="1">
          <mxGeometry x="365" y="920" width="150" height="60" as="geometry" />
        </mxCell>
        <mxCell id="Bv9qbFzD1dSgbznQpZfb-22" value="" style="edgeStyle=orthogonalEdgeStyle;rounded=0;orthogonalLoop=1;jettySize=auto;html=1;" edge="1" parent="1" source="Bv9qbFzD1dSgbznQpZfb-23" target="Bv9qbFzD1dSgbznQpZfb-24">
          <mxGeometry relative="1" as="geometry" />
        </mxCell>
        <mxCell id="Bv9qbFzD1dSgbznQpZfb-23" value="Menyerahkan bukti ke resepsionis" style="whiteSpace=wrap;html=1;" vertex="1" parent="1">
          <mxGeometry x="190" y="1165" width="120" height="60" as="geometry" />
        </mxCell>
        <mxCell id="Bv9qbFzD1dSgbznQpZfb-24" value="Selesai" style="rounded=1;whiteSpace=wrap;html=1;fontSize=12;glass=0;strokeWidth=1;shadow=0;arcSize=50;" vertex="1" parent="1">
          <mxGeometry x="190" y="1265" width="120" height="40" as="geometry" />
        </mxCell>
        <mxCell id="Bv9qbFzD1dSgbznQpZfb-25" value="" style="edgeStyle=orthogonalEdgeStyle;rounded=0;orthogonalLoop=1;jettySize=auto;html=1;" edge="1" parent="1" source="Bv9qbFzD1dSgbznQpZfb-26" target="Bv9qbFzD1dSgbznQpZfb-12">
          <mxGeometry relative="1" as="geometry" />
        </mxCell>
        <mxCell id="Bv9qbFzD1dSgbznQpZfb-26" value="Memesan Kamar" style="whiteSpace=wrap;html=1;" vertex="1" parent="1">
          <mxGeometry x="190" y="655" width="120" height="60" as="geometry" />
        </mxCell>
        <mxCell id="Bv9qbFzD1dSgbznQpZfb-27" value="Text" style="text;html=1;strokeColor=none;fillColor=none;align=center;verticalAlign=middle;whiteSpace=wrap;rounded=0;" vertex="1" parent="1">
          <mxGeometry x="450" y="940" width="60" height="30" as="geometry" />
        </mxCell>
        <mxCell id="Bv9qbFzD1dSgbznQpZfb-28" value="No" style="text;html=1;strokeColor=none;fillColor=none;align=center;verticalAlign=middle;whiteSpace=wrap;rounded=0;" vertex="1" parent="1">
          <mxGeometry x="305" y="1070" width="60" height="30" as="geometry" />
        </mxCell>
        <mxCell id="Bv9qbFzD1dSgbznQpZfb-29" value="Yes" style="text;html=1;strokeColor=none;fillColor=none;align=center;verticalAlign=middle;whiteSpace=wrap;rounded=0;" vertex="1" parent="1">
          <mxGeometry x="240" y="1120" width="60" height="30" as="geometry" />
        </mxCell>
      </root>
    </mxGraphModel>
  </diagram>
  <diagram id="ii14tyd44HxpR8Z_mRCP" name="Administrator">
    <mxGraphModel dx="910" dy="512" grid="1" gridSize="10" guides="1" tooltips="1" connect="1" arrows="1" fold="1" page="1" pageScale="1" pageWidth="827" pageHeight="1169" math="0" shadow="0">
      <root>
        <mxCell id="0" />
        <mxCell id="1" parent="0" />
      </root>
    </mxGraphModel>
  </diagram>
  <diagram id="CH9G5WQj6tcHNCqtxuWU" name="Resepsionis">
    <mxGraphModel dx="910" dy="512" grid="1" gridSize="10" guides="1" tooltips="1" connect="1" arrows="1" fold="1" page="1" pageScale="1" pageWidth="827" pageHeight="1169" math="0" shadow="0">
      <root>
        <mxCell id="0" />
        <mxCell id="1" parent="0" />
        <mxCell id="lOZEbFwOBG6TV13-NLZ2-1" value="Resepsionis" style="shape=umlActor;verticalLabelPosition=bottom;verticalAlign=top;html=1;outlineConnect=0;" vertex="1" parent="1">
          <mxGeometry x="110" y="430" width="45" height="90" as="geometry" />
        </mxCell>
      </root>
    </mxGraphModel>
  </diagram>
</mxfile>
